<svg width="30" height="30" viewBox="0 0 30 30" fill="none" xmlns="http://www.w3.org/2000/svg">
<rect width="30" height="30" rx="15" fill="#19303D"/>
<path d="M19.6133 10.6946C19.48 10.289 19.1067 10.0002 18.6667 10.0002H11.3333C10.8933 10.0002 10.5267 10.289 10.3867 10.6946L9 14.8127V20.3127C9 20.6909 9.3 21.0002 9.66667 21.0002H10.3333C10.7 21.0002 11 20.6909 11 20.3127V19.6252H19V20.3127C19 20.6909 19.3 21.0002 19.6667 21.0002H20.3333C20.7 21.0002 21 20.6909 21 20.3127V14.8127L19.6133 10.6946ZM11.3333 17.5627C10.78 17.5627 10.3333 17.1021 10.3333 16.5315C10.3333 15.9609 10.78 15.5002 11.3333 15.5002C11.8867 15.5002 12.3333 15.9609 12.3333 16.5315C12.3333 17.1021 11.8867 17.5627 11.3333 17.5627ZM18.6667 17.5627C18.1133 17.5627 17.6667 17.1021 17.6667 16.5315C17.6667 15.9609 18.1133 15.5002 18.6667 15.5002C19.22 15.5002 19.6667 15.9609 19.6667 16.5315C19.6667 17.1021 19.22 17.5627 18.6667 17.5627ZM10.3333 14.1252L11.3333 11.0315H18.6667L19.6667 14.1252H10.3333Z" fill="white"/>
</svg>
