<svg width="24" height="24" viewBox="0 0 24 24" fill="none" xmlns="http://www.w3.org/2000/svg">
<rect width="24" height="24" rx="12" fill="#76A7CB"/>
<path d="M16.9018 8.38351C17.082 7.93414 16.9919 7.48477 16.8117 7.21515C16.5414 6.94553 16.181 6.94553 15.6404 7.12527C15.0998 7.30502 14.5592 7.75439 14.1989 8.11388L12.9375 9.37212L7.80195 8.11388C7.71185 8.11388 7.62175 8.11388 7.53165 8.20376L6.54058 9.19237C6.54058 9.28224 6.54058 9.28224 6.54058 9.37212C6.54058 9.46199 6.63068 9.55186 6.63068 9.55186L10.595 11.7088L8.70292 13.8658L7.08117 13.3266C7.08117 13.3266 7.08117 13.3266 6.99107 13.3266C6.90097 13.3266 6.90097 13.3266 6.81088 13.4164L6.0901 14.1354C6 14.2253 6 14.2253 6 14.3152C6 14.405 6.0901 14.4949 6.0901 14.4949L8.07224 15.9329L9.5138 17.9101C9.60389 18 9.60389 18 9.69399 18C9.78409 18 9.78409 18 9.87419 17.9101L10.6851 17.1911C10.7752 17.1013 10.7752 17.0114 10.7752 16.9215L10.2346 15.3038L12.3969 13.4164L14.5592 17.281C14.5592 17.3709 14.6493 17.3709 14.7394 17.3709C14.7394 17.3709 14.7394 17.3709 14.8295 17.3709C14.9196 17.3709 14.9196 17.3709 15.0097 17.281L16.0008 16.562C16.0909 16.4721 16.0909 16.3823 16.0909 16.2924L14.8295 10.9L16.0909 9.64174C16.2711 9.46199 16.7216 8.92275 16.9018 8.38351Z" fill="white"/>
</svg>
