<svg width="24" height="24" viewBox="0 0 24 24" fill="none" xmlns="http://www.w3.org/2000/svg">
<rect width="24" height="24" rx="12" fill="#7FA180"/>
<path d="M12 6C9.46771 6 7 6.29323 7 8.34586V13.9173C7 15.0492 7.89948 15.9699 9.00521 15.9699L8.14583 17.7068V18H15.8542V17.7068L14.9948 15.9699C16.1005 15.9699 17 15.0492 17 13.9173V8.34586C17 6.29323 14.5323 6 12 6ZM9.00521 14.797C8.52969 14.797 8.14583 14.4041 8.14583 13.9173C8.14583 13.4305 8.52969 13.0376 9.00521 13.0376C9.48073 13.0376 9.86458 13.4305 9.86458 13.9173C9.86458 14.4041 9.48073 14.797 9.00521 14.797ZM11.5833 11.2782H8.14583V8.34586H11.5833V11.2782ZM14.9948 14.797C14.5193 14.797 14.1354 14.4041 14.1354 13.9173C14.1354 13.4305 14.5193 13.0376 14.9948 13.0376C15.4703 13.0376 15.8542 13.4305 15.8542 13.9173C15.8542 14.4041 15.4703 14.797 14.9948 14.797ZM15.8542 11.2782H12.4167V8.34586H15.8542V11.2782Z" fill="white"/>
</svg>

